:FULLY-SPECIFIED
:FORCE-ALL-JOINTS-BE-3DOF
:DEGREES
3160
root 0.947088 16.9255 -33.3592 1086.04 5.17468 -3.79642
lfemur -18.5492 -2.46074 -8.19978
ltibia 35.2024 0 0
lfoot -16.4033 7.64587 0
ltoes -39.3052 0 0
rfemur -19.3772 -0.186522 18.5509
rtibia 38.9749 0 0
rfoot -12.0941 -21.0725 0
rtoes -16.4756 0 0
lowerback 5.63577 1.54544 -0.530169
upperback -3.96254 2.15758 1.891
thorax -7.4097 1.14429 2.02275
lowerneck -5.40111 -5.15279 -7.9375
upperneck 9.28645 -6.80467 6.0224
head 4.11566 -3.34451 2.73646
lclavicle 1.92879e-014 -1.59258e-014 0
lhumerus -33.2071 -18.4196 94.8498
lradius 51.3322 0 0
lwrist -9.24748 0 0
lhand -33.87 390.797 0
lfingers 7.12502 0 0
lthumb -7.05404 -659.34 0
rclavicle 1.92879e-014 -1.59258e-014 0
rhumerus -35.4377 13.8432 -81.3388
rradius 50.4185 0 0
rwrist 0.990813 0 0
rhand -28.8555 -393.816 0
rfingers 7.12502 0 0
rthumb -2.21214 296.217 0
3161
root 0.953915 16.9282 -33.3548 1086.04 5.07979 -3.82525
lfemur -18.4736 -2.44662 -8.20391
ltibia 35.1663 0 0
lfoot -16.3958 7.71632 0
ltoes -39.3746 0 0
rfemur -19.3293 -0.158281 18.5549
rtibia 38.8884 0 0
rfoot -12.0687 -21.0183 0
rtoes -16.4736 0 0
lowerback 5.60444 1.56003 -0.540605
upperback -3.96442 2.17569 1.88502
thorax -7.39444 1.15353 2.02088
lowerneck -5.42891 -5.14471 -7.93214
upperneck 9.35593 -6.79349 6.00795
head 4.14125 -3.33915 2.73205
lclavicle 2.27581e-014 -1.25661e-014 0
lhumerus -33.1359 -18.1951 94.7588
lradius 50.7953 0 0
lwrist -9.39909 0 0
lhand -33.8932 390.815 0
lfingers 7.12502 0 0
lthumb -7.07641 -659.323 0
rclavicle 2.27581e-014 -1.25661e-014 0
rhumerus -35.4198 13.5725 -81.3405
rradius 49.8911 0 0
rwrist 1.06811 0 0
rhand -28.7667 -393.76 0
rfingers 7.12502 0 0
rthumb -2.12639 296.272 0
3162
root 0.960742 16.9308 -33.3504 1086.03 4.98501 -3.85301
lfemur -18.3989 -2.43125 -8.20844
ltibia 35.1308 0 0
lfoot -16.3887 7.78517 0
ltoes -39.4441 0 0
rfemur -19.2834 -0.13107 18.5584
rtibia 38.8047 0 0
rfoot -12.0445 -20.9641 0
rtoes -16.4711 0 0
lowerback 5.57426 1.57461 -0.550566
upperback -3.96623 2.19385 1.87905
thorax -7.37977 1.16278 2.01872
lowerneck -5.45543 -5.13614 -7.92662
upperneck 9.42316 -6.78162 5.99294
head 4.16623 -3.3335 2.72792
lclavicle 2.61974e-014 -9.14964e-015 0
lhumerus -33.0622 -17.9735 94.669
lradius 50.259 0 0
lwrist -9.55034 0 0
lhand -33.9149 390.834 0
lfingers 7.12502 0 0
lthumb -7.0974 -659.305 0
rclavicle 2.61974e-014 -9.14964e-015 0
rhumerus -35.4013 13.3052 -81.3421
rradius 49.372 0 0
rwrist 1.14179 0 0
rhand -28.6772 -393.704 0
rfingers 7.12502 0 0
rthumb -2.03989 296.327 0
3163
root 0.967569 16.9335 -33.346 1086.03 4.89076 -3.87973
lfemur -18.3252 -2.41501 -8.21336
ltibia 35.0957 0 0
lfoot -16.3821 7.85253 0
ltoes -39.5129 0 0
rfemur -19.2392 -0.104764 18.5616
rtibia 38.7236 0 0
rfoot -12.0215 -20.9101 0
rtoes -16.468 0 0
lowerback 5.54529 1.58911 -0.560071
upperback -3.96821 2.21196 1.87315
thorax -7.36597 1.17198 2.01635
lowerneck -5.48083 -5.1271 -7.9209
upperneck 9.48863 -6.76916 5.97757
head 4.19073 -3.32758 2.72404
lclavicle 2.95479e-014 -5.72854e-015 0
lhumerus -32.9868 -17.7545 94.5804
lradius 49.7245 0 0
lwrist -9.70151 0 0
lhand -33.9353 390.854 0
lfingers 7.12502 0 0
lthumb -7.11709 -659.286 0
rclavicle 2.95479e-014 -5.72854e-015 0
rhumerus -35.3826 13.0413 -81.3432
rradius 48.8611 0 0
rwrist 1.21241 0 0
rhand -28.5871 -393.648 0
rfingers 7.12502 0 0
rthumb -1.95292 296.382 0
3164
root 0.974396 16.9361 -33.3415 1086.02 4.79746 -3.90545
lfemur -18.2527 -2.3983 -8.21863
ltibia 35.0611 0 0
lfoot -16.3757 7.91854 0
ltoes -39.5801 0 0
rfemur -19.1966 -0.0792363 18.5643
rtibia 38.6448 0 0
rfoot -11.9995 -20.8567 0
rtoes -16.4644 0 0
lowerback 5.51756 1.60345 -0.569142
upperback -3.97061 2.22993 1.86739
thorax -7.35332 1.18111 2.01387
lowerneck -5.50532 -5.11765 -7.91496
upperneck 9.55283 -6.75617 5.96206
head 4.21482 -3.32142 2.72034
lclavicle 3.27514e-014 -2.3551e-015 0
lhumerus -32.9103 -17.5379 94.493
lradius 49.1933 0 0
lwrist -9.85286 0 0
lhand -33.9544 390.873 0
lfingers 7.12502 0 0
lthumb -7.13556 -659.267 0
rclavicle 3.27514e-014 -2.3551e-015 0
rhumerus -35.3639 12.781 -81.3434
rradius 48.3583 0 0
rwrist 1.28053 0 0
rhand -28.4969 -393.593 0
rfingers 7.12502 0 0
rthumb -1.86575 296.436 0
3165
root 0.981222 16.9388 -33.3371 1086.02 4.70553 -3.93021
lfemur -18.1814 -2.38151 -8.22424
ltibia 35.0269 0 0
lfoot -16.3695 7.98331 0
ltoes -39.6449 0 0
rfemur -19.1553 -0.0543597 18.5666
rtibia 38.568 0 0
rfoot -11.9786 -20.8042 0
rtoes -16.4602 0 0
lowerback 5.49111 1.61755 -0.577798
upperback -3.97368 2.24764 1.86184
thorax -7.34212 1.1901 2.01137
lowerneck -5.52906 -5.10782 -7.90876
upperneck 9.61624 -6.74274 5.94662
head 4.23862 -3.31505 2.71679
lclavicle 3.57501e-014 9.18447e-016 0
lhumerus -32.8337 -17.3235 94.4068
lradius 48.6666 0 0
lwrist -10.0047 0 0
lhand -33.9724 390.892 0
lfingers 7.12502 0 0
lthumb -7.1529 -659.249 0
rclavicle 3.57501e-014 9.18447e-016 0
rhumerus -35.3455 12.5246 -81.3422
rradius 47.8633 0 0
rwrist 1.34672 0 0
rhand -28.4067 -393.54 0
rfingers 7.12502 0 0
rthumb -1.77864 296.488 0
3166
root 0.988049 16.9415 -33.3327 1086.02 4.61539 -3.95403
lfemur -18.1114 -2.36503 -8.23017
ltibia 34.9929 0 0
lfoot -16.3632 8.04697 0
ltoes -39.7064 0 0
rfemur -19.1152 -0.030008 18.5684
rtibia 38.493 0 0
rfoot -11.9585 -20.7529 0
rtoes -16.4556 0 0
lowerback 5.46598 1.63132 -0.586063
upperback -3.97765 2.26499 1.85656
thorax -7.33265 1.19892 2.00895
lowerneck -5.55225 -5.09766 -7.90229
upperneck 9.67934 -6.72893 5.93144
head 4.26221 -3.30847 2.71332
lclavicle 3.84861e-014 4.03987e-015 0
lhumerus -32.7576 -17.1111 94.3218
lradius 48.1458 0 0
lwrist -10.1572 0 0
lhand -33.9893 390.91 0
lfingers 7.12502 0 0
lthumb -7.16918 -659.231 0
rclavicle 3.84861e-014 4.03987e-015 0
rhumerus -35.3277 12.2721 -81.3392
rradius 47.3759 0 0
rwrist 1.41153 0 0
rhand -28.3168 -393.489 0
rfingers 7.12502 0 0
rthumb -1.69185 296.538 0
3167
root 0.994876 16.9441 -33.3282 1086.02 4.52746 -3.97695
lfemur -18.0431 -2.34926 -8.23639
ltibia 34.9592 0 0
lfoot -16.3569 8.10965 0
ltoes -39.7637 0 0
rfemur -19.0759 -0.00605466 18.5698
rtibia 38.4195 0 0
rfoot -11.9392 -20.7031 0
rtoes -16.4506 0 0
lowerback 5.44221 1.64469 -0.593954
upperback -3.98278 2.28189 1.85164
thorax -7.32518 1.20752 2.0067
lowerneck -5.57506 -5.0872 -7.8955
upperneck 9.74262 -6.71484 5.91675
head 4.2857 -3.30173 2.70989
lclavicle 4.09012e-014 6.95691e-015 0
lhumerus -32.6829 -16.9005 94.2381
lradius 47.6322 0 0
lwrist -10.3107 0 0
lhand -34.0051 390.927 0
lfingers 7.12502 0 0
lthumb -7.1845 -659.215 0
rclavicle 4.09012e-014 6.95691e-015 0
rhumerus -35.3107 12.0238 -81.3339
rradius 46.896 0 0
rwrist 1.47554 0 0
rhand -28.2276 -393.441 0
rfingers 7.12502 0 0
rthumb -1.60566 296.586 0
3168
root 1.0017 16.9468 -33.3238 1086.01 4.44216 -3.99901
lfemur -17.9763 -2.33459 -8.24288
ltibia 34.9257 0 0
lfoot -16.3503 8.17145 0
ltoes -39.816 0 0
rfemur -19.0373 0.017627 18.5707
rtibia 38.3472 0 0
rfoot -11.9207 -20.6551 0
rtoes -16.4451 0 0
lowerback 5.41983 1.65756 -0.601495
upperback -3.98931 2.29822 1.84714
thorax -7.32001 1.21586 2.00471
lowerneck -5.59769 -5.07648 -7.88837
upperneck 9.80657 -6.70053 5.90275
head 4.30919 -3.29483 2.70646
lclavicle 4.29376e-014 9.61735e-015 0
lhumerus -32.6103 -16.6914 94.1556
lradius 47.1272 0 0
lwrist -10.4655 0 0
lhand -34.0201 390.941 0
lfingers 7.12502 0 0
lthumb -7.19893 -659.201 0
rclavicle 4.29376e-014 9.61735e-015 0
rhumerus -35.2949 11.7798 -81.326
rradius 46.4235 0 0
rwrist 1.53931 0 0
rhand -28.1392 -393.395 0
rfingers 7.12502 0 0
rthumb -1.52032 296.631 0
3169
root 1.00853 16.9494 -33.3194 1086.01 4.35991 -4.02023
lfemur -17.9114 -2.32141 -8.24963
ltibia 34.8923 0 0
lfoot -16.3434 8.23252 0
ltoes -39.8626 0 0
rfemur -18.9991 0.0411634 18.5711
rtibia 38.276 0 0
rfoot -11.9027 -20.6092 0
rtoes -16.4392 0 0
lowerback 5.39889 1.66987 -0.608704
upperback -3.99748 2.31389 1.84313
thorax -7.31742 1.2239 2.00307
lowerneck -5.6203 -5.06554 -7.88086
upperneck 9.87167 -6.68609 5.88964
head 4.33277 -3.28781 2.70296
lclavicle 4.45373e-014 1.19689e-014 0
lhumerus -32.5405 -16.4837 94.0743
lradius 46.6321 0 0
lwrist -10.6219 0 0
lhand -34.0342 390.953 0
lfingers 7.12502 0 0
lthumb -7.21255 -659.19 0
rclavicle 4.45373e-014 1.19689e-014 0
rhumerus -35.2805 11.5403 -81.3151
rradius 45.958 0 0
rwrist 1.60339 0 0
rhand -28.052 -393.354 0
rfingers 7.12502 0 0
rthumb -1.43611 296.672 0
3170
root 1.01536 16.9521 -33.315 1086.01 4.28114 -4.04067
lfemur -17.8484 -2.31012 -8.2566
ltibia 34.8589 0 0
lfoot -16.336 8.29297 0
ltoes -39.9024 0 0
rfemur -18.9612 0.0646811 18.571
rtibia 38.2055 0 0
rfoot -11.8853 -20.5658 0
rtoes -16.4329 0 0
lowerback 5.37942 1.68153 -0.615604
upperback -4.00754 2.32879 1.83968
thorax -7.31769 1.23157 2.00189
lowerneck -5.6431 -5.05443 -7.87296
upperneck 9.9384 -6.67159 5.87764
head 4.35653 -3.28069 2.69935
lclavicle 4.56423e-014 1.39594e-014 0
lhumerus -32.4744 -16.2771 93.9943
lradius 46.1482 0 0
lwrist -10.78 0 0
lhand -34.0476 390.962 0
lfingers 7.12502 0 0
lthumb -7.22545 -659.181 0
rclavicle 4.56423e-014 1.39594e-014 0
rhumerus -35.2677 11.3055 -81.3006
rradius 45.4995 0 0
rwrist 1.66835 0 0
rhand -27.9663 -393.316 0
rfingers 7.12502 0 0
rthumb -1.35329 296.709 0
3171
root 1.02218 16.9547 -33.3105 1086.01 4.20626 -4.06034
lfemur -17.7875 -2.3011 -8.26378
ltibia 34.8255 0 0
lfoot -16.3281 8.35291 0
ltoes -39.9348 0 0
rfemur -18.9233 0.0883068 18.5703
rtibia 38.1355 0 0
rfoot -11.8683 -20.5251 0
rtoes -16.4263 0 0
lowerback 5.36146 1.69246 -0.622214
upperback -4.01973 2.34282 1.83685
thorax -7.32112 1.23886 2.00124
lowerneck -5.66625 -5.04319 -7.86462
upperneck 10.0072 -6.6571 5.86696
head 4.38059 -3.27348 2.69558
lclavicle 4.61946e-014 1.55366e-014 0
lhumerus -32.4128 -16.0715 93.9156
lradius 45.6769 0 0
lwrist -10.9402 0 0
lhand -34.0603 390.967 0
lfingers 7.12502 0 0
lthumb -7.23772 -659.177 0
rclavicle 4.61946e-014 1.55366e-014 0
rhumerus -35.2569 11.0755 -81.2822
rradius 45.0478 0 0
rwrist 1.73476 0 0
rhand -27.8822 -393.283 0
rfingers 7.12502 0 0
rthumb -1.27213 296.741 0
3172
root 1.02901 16.9574 -33.3061 1086.01 4.1357 -4.07928
lfemur -17.7287 -2.29476 -8.27115
ltibia 34.7921 0 0
lfoot -16.3194 8.41249 0
ltoes -39.9588 0 0
rfemur -18.8852 0.112167 18.5691
rtibia 38.0657 0 0
rfoot -11.8516 -20.4874 0
rtoes -16.4193 0 0
lowerback 5.34506 1.70258 -0.628556
upperback -4.0343 2.35587 1.83473
thorax -7.32797 1.2457 2.00123
lowerneck -5.68994 -5.03185 -7.85583
upperneck 10.0787 -6.64272 5.8578
head 4.40503 -3.26622 2.6916
lclavicle 4.61363e-014 1.66482e-014 0
lhumerus -32.3563 -15.8665 93.8381
lradius 45.2195 0 0
lwrist -11.1028 0 0
lhand -34.0724 390.968 0
lfingers 7.12502 0 0
lthumb -7.24943 -659.176 0
rclavicle 4.61363e-014 1.66482e-014 0
rhumerus -35.2483 10.8505 -81.2595
rradius 44.6027 0 0
rwrist 1.80318 0 0
rhand -27.8002 -393.256 0
rfingers 7.12502 0 0
rthumb -1.1929 296.768 0
